<?xml version="1.0" standalone="no"?>
<!DOCTYPE svg PUBLIC "-//W3C//DTD SVG 1.1//EN" "http://www.w3.org/Graphics/SVG/1.1/DTD/svg11.dtd" >
<svg xmlns="http://www.w3.org/2000/svg" xmlns:xlink="http://www.w3.org/1999/xlink" version="1.1">
<metadata></metadata>
<defs>
<font id="public_sansmedium_italic" horiz-adv-x="1085" >
<font-face units-per-em="2048" ascent="1597" descent="-451" />
<missing-glyph horiz-adv-x="483" />
<glyph unicode="&#xfb01;" horiz-adv-x="1325" d="M117 907l22 152h207l23 162q20 127 93.5 193.5t196.5 66.5h199l-22 -146h-144q-60 0 -88 -32.5t-37 -104.5l-20 -139h239l-22 -152h-236l-131 -907h-204l131 907h-207zM874 0l154 1059h203l-152 -1059h-205zM1051 1268l32 211h215l-32 -211h-215z" />
<glyph unicode="&#xfb02;" horiz-adv-x="1374" d="M117 907l22 152h207l23 162q20 127 93.5 193.5t196.5 66.5h199l-22 -146h-144q-60 0 -88 -32.5t-37 -104.5l-20 -139h239l-22 -152h-236l-131 -907h-204l131 907h-207zM893.5 188q2.5 42 7.5 88l180 1246h203l-178 -1223q-21 -151 90 -160l53 -2l-20 -133 q-63 -18 -101 -18q-68 0 -115.5 16t-71.5 43t-37 64t-10.5 79z" />
<glyph horiz-adv-x="55" />
<glyph horiz-adv-x="55" />
<glyph horiz-adv-x="682" />
<glyph unicode="&#xd;" horiz-adv-x="479" />
<glyph unicode=" "  horiz-adv-x="483" />
<glyph unicode="&#x09;" horiz-adv-x="483" />
<glyph unicode="&#xa0;" horiz-adv-x="483" />
<glyph unicode="!" horiz-adv-x="520" d="M53 0l37 254h238l-37 -254h-238zM164 391l102 1090h244l-213 -1090h-133z" />
<glyph unicode="&#x22;" horiz-adv-x="882" d="M254 985l12 496h236l-133 -496h-115zM633 985l12 496h236l-133 -496h-115z" />
<glyph unicode="#" horiz-adv-x="1198" d="M80 477v123h258l45 297h-238v123h256l70 463l123 -13l-68 -450h297l70 463l125 -13l-68 -450h219v-123h-237l-45 -297h217v-123h-236l-73 -481l-123 18l69 463h-297l-71 -481l-123 18l69 463h-239zM463 600h297l45 297h-297z" />
<glyph unicode="$" horiz-adv-x="1304" d="M98 387l215 10q12 -119 92 -181t213 -62q122 0 218.5 64.5t109.5 164.5q15 94 -30.5 149.5t-157.5 88.5l-232 63q-327 89 -286 379q23 171 157 288t328 142l31 207h186l-31 -207q171 -27 259 -144t69 -274l-207 -8q-3 129 -59 193.5t-178 64.5q-127 0 -222.5 -64 t-109.5 -176q-11 -77 33 -122t172 -86l221 -70q324 -95 276 -422q-23 -161 -154 -269.5t-329 -131.5l-27 -195h-186l29 195q-192 21 -297.5 123t-102.5 280z" />
<glyph unicode="%" horiz-adv-x="1732" d="M184 1079q26 188 136 306t251 118t216.5 -118t48.5 -306q-26 -189 -133 -304.5t-250 -115.5t-219 116t-50 304zM315 -8l664 895l580 610l-662 -893zM330 1079q-19 -141 16 -223t121 -82t144 82t79 223t-15.5 226.5t-121.5 85.5q-83 0 -142.5 -85.5t-80.5 -226.5zM950 401 q26 187 135.5 305.5t251.5 118.5q141 0 216 -118t49 -306q-26 -189 -133.5 -305t-251.5 -116q-142 0 -218 116.5t-49 304.5zM1096 399q-19 -136 17.5 -219.5t119.5 -83.5t142.5 83.5t78.5 219.5q20 139 -16.5 225.5t-118.5 86.5t-142 -86.5t-81 -225.5z" />
<glyph unicode="&#x26;" horiz-adv-x="1419" d="M68 373q21 143 118 247.5t287 202.5q-75 99 -106.5 179t-18.5 172q22 141 140.5 235t283.5 94q166 0 268.5 -88t81.5 -229q-14 -91 -105 -194.5t-280 -205.5l236 -360q130 173 170 379h207q-29 -96 -83 -194t-97 -158.5t-115 -151.5l202 -301h-237l-109 162 q-229 -172 -467 -172q-209 0 -305 104t-71 279zM295 379q-7 -101 56.5 -162t162.5 -61q76 0 160 35.5t153 97.5l-270 409q-112 -61 -182.5 -142t-79.5 -177zM555 1188q-17 -116 80 -248l29 -39q147 83 205.5 147t66.5 132q14 94 -38.5 140t-137.5 44q-83 -1 -139.5 -52.5 t-65.5 -123.5z" />
<glyph unicode="'" horiz-adv-x="503" d="M256 985l12 496h236l-135 -496h-113z" />
<glyph unicode="(" horiz-adv-x="618" d="M155.5 185q-35.5 209 0.5 454q35 244 143 478t266 433h142q-136 -213 -231.5 -447.5t-127.5 -465.5q-32 -238 -11 -450t93 -447h-141q-98 236 -133.5 445z" />
<glyph unicode=")" horiz-adv-x="630" d="M-76 -262q135 210 230 444.5t129 468.5q62 421 -84 897h141q98 -237 134 -445.5t1 -453.5q-35 -246 -143 -479.5t-266 -431.5h-142z" />
<glyph unicode="*" horiz-adv-x="835" d="M145 1165l48 129l260 -106l-19 293h150l-21 -293l266 112l41 -129l-268 -81l191 -236l-121 -86l-162 262l-166 -268l-121 84l197 241z" />
<glyph unicode="+" horiz-adv-x="1110" d="M143 664l25 159h352l53 371h156l-53 -369h350l-25 -159h-350l-53 -371h-156l54 369h-353z" />
<glyph unicode="," horiz-adv-x="499" d="M-20 -262l147 258l-88 4l35 240h239l-30 -209l-215 -293h-88z" />
<glyph unicode="-" horiz-adv-x="761" d="M115 446l22 162l502 2l-23 -161z" />
<glyph unicode="." horiz-adv-x="473" d="M37 0l39 256h235l-37 -256h-237z" />
<glyph unicode="/" horiz-adv-x="706" d="M-57 -72l712 1553h154l-713 -1553h-153z" />
<glyph unicode="0" horiz-adv-x="1206" d="M121 735q55 371 219.5 568.5t402.5 197.5q239 0 346 -196.5t54 -567.5q-53 -369 -216.5 -562t-404.5 -193t-347.5 192t-53.5 561zM338 737q-43 -303 10 -441t201 -138q149 0 240.5 137t136.5 442q44 308 -9 449t-200 141q-146 0 -240 -142t-139 -448z" />
<glyph unicode="1" horiz-adv-x="813" d="M180 1165l19 133q123 0 198.5 21.5t111.5 60t50 101.5h143l-217 -1481h-209l170 1165h-266z" />
<glyph unicode="2" horiz-adv-x="1210" d="M55 0l19 121l10 63q15 107 69 195t128 146.5t160.5 109t172 95t157.5 91.5t122 111.5t61 142.5q15 110 -47 177t-182 67q-130 0 -223 -78t-125 -215h-201q16 100 62.5 185t118.5 150.5t175 102.5t226 37q217 0 329 -116.5t84 -309.5q-16 -108 -69 -194t-125.5 -143 t-157.5 -105t-169 -90t-154.5 -86.5t-120 -107.5t-60.5 -140l-4 -27h736l-27 -182h-965z" />
<glyph unicode="3" horiz-adv-x="1226" d="M68 432h200q1 -134 73.5 -205t197.5 -71q150 0 248.5 71t115.5 187q18 123 -66 193t-231 73l-127 2l25 174l121 6q133 3 230.5 74t111.5 172q12 94 -57.5 157.5t-200.5 63.5q-77 0 -144.5 -28t-121 -94.5t-70.5 -162.5h-201q16 107 67.5 194.5t127.5 144.5t170.5 87.5 t197.5 30.5q230 0 355 -101t98 -284q-15 -113 -94.5 -199t-219.5 -135q133 -42 201 -136t47 -234q-20 -134 -107 -233.5t-218.5 -149.5t-288.5 -49q-228 2 -347 123t-93 329z" />
<glyph unicode="4" horiz-adv-x="1226" d="M55 369l27 186l786 926h205l-133 -930h229l-26 -182h-232l-51 -369h-201l54 369h-658zM276 551h461l97 661z" />
<glyph unicode="5" horiz-adv-x="1280" d="M68 352l184 82q36 -130 118 -205t210 -75q147 0 246.5 86.5t121.5 236.5q20 138 -56.5 226t-207.5 88q-88 0 -158 -28t-153 -110q-13 -4 -25 2l-153 60l174 766h856l-35 -178h-678l-100 -457q151 119 344 119q98 0 180 -31.5t139 -90.5t81.5 -151.5t8.5 -206.5 q-34 -231 -195.5 -368t-398.5 -137q-196 0 -332.5 102.5t-170.5 269.5z" />
<glyph unicode="6" horiz-adv-x="1226" d="M121 727q53 364 230 574t442 210q122 0 216.5 -46t148.5 -136t50 -211h-192q-12 104 -75.5 162.5t-168.5 58.5q-179 0 -290 -159t-136 -453q57 106 162 170t223 64q212 0 321 -125.5t78 -341.5q-33 -223 -189.5 -362.5t-381.5 -139.5q-252 0 -370.5 196.5t-67.5 538.5z M340 532q-25 -166 41.5 -269t198.5 -103q124 0 216.5 90t114.5 235q20 147 -43 228.5t-198 81.5q-112 0 -213.5 -80t-116.5 -183z" />
<glyph unicode="7" horiz-adv-x="1159" d="M190 1303l27 178h1002l-27 -178q-218 -259 -438.5 -662t-276.5 -641h-221q31 108 90 251t146 316.5t213 368.5t266 367h-781z" />
<glyph unicode="8" horiz-adv-x="1265" d="M74 416q18 125 120 234.5t212 131.5q-202 98 -170 318q18 127 95 220t191.5 139t251.5 46q212 0 331.5 -107.5t92.5 -297.5q-35 -221 -264 -318q104 -22 174.5 -131.5t52.5 -234.5q-29 -194 -194 -309t-412 -115q-246 0 -377.5 115.5t-103.5 308.5zM293 418 q-15 -119 62.5 -190.5t224.5 -71.5q148 0 245.5 71.5t116.5 190.5q15 120 -62.5 195t-224.5 75q-146 0 -245.5 -75t-116.5 -195zM444 1104q-17 -112 49 -174t189 -62q124 0 208 62t101 174q15 115 -51 182.5t-188 67.5t-207.5 -68t-100.5 -182z" />
<glyph unicode="9" horiz-adv-x="1200" d="M78 381h186q8 -99 71.5 -158t166.5 -59q182 0 299 152.5t145 465.5q-51 -114 -154.5 -182t-228.5 -68q-206 0 -314.5 128.5t-78.5 347.5q33 225 182 363t367 138q242 0 355.5 -196t66.5 -539q-54 -376 -225 -579t-431 -203q-178 0 -294.5 106t-112.5 283zM381 1018 q-20 -144 39 -226.5t190 -82.5q109 0 209 78.5t115 181.5q25 167 -40.5 270.5t-195.5 103.5q-121 0 -209 -89.5t-108 -235.5z" />
<glyph unicode=":" horiz-adv-x="477" d="M37 6l37 254h237l-37 -254h-237zM147 764l37 256h238l-37 -256h-238z" />
<glyph unicode=";" horiz-adv-x="501" d="M-6 -297l158 297h-89l37 254h238l-33 -225l-225 -326h-86zM166 760l39 258h237l-36 -258h-240z" />
<glyph unicode="&#x3c;" horiz-adv-x="1093" d="M137 614l27 187l891 346l-27 -193l-641 -247l567 -246l-28 -189z" />
<glyph unicode="=" horiz-adv-x="1112" d="M106 403l25 160l858 2l-22 -159zM174 860l23 162h860l-25 -160z" />
<glyph unicode="&#x3e;" horiz-adv-x="1093" d="M90 272l29 189l637 246l-568 247l29 193l789 -346l-27 -187z" />
<glyph unicode="?" horiz-adv-x="1048" d="M137 1198q82 143 217.5 223t296.5 80q198 0 304 -99.5t83 -254.5q-10 -70 -40 -132t-71 -109t-88 -92t-95 -90t-88.5 -92t-70.5 -108t-40 -129h-170q11 79 40.5 149t67.5 122.5t82 100.5t87.5 91.5t80 85.5t63 92t33.5 103q13 94 -42.5 150.5t-159.5 56.5 q-93 0 -183.5 -57t-134.5 -144zM285 0l37 254h235l-37 -254h-235z" />
<glyph unicode="@" horiz-adv-x="1617" d="M96 520q19 129 71 249t134 219.5t185 173.5t230.5 115.5t264.5 41.5q103 0 195.5 -23t172.5 -74t134 -124t76.5 -181.5t3.5 -238.5q-34 -228 -159 -372t-286 -144q-141 0 -160 102q-3 13 -7 13t-15 -11q-119 -133 -279 -133q-116 0 -181.5 98t-41.5 254q28 193 152 328 t286 135q143 0 199 -119q3 -8 10 -1l4 8l23 61h131l-135 -453q-24 -83 -12 -115t59 -32q89 0 166 100.5t102 268.5q16 111 -1.5 201t-60 148.5t-106.5 98.5t-136 57t-154 17q-149 0 -277 -53t-217.5 -145.5t-147.5 -212.5t-77 -257q-19 -135 6 -248t90 -195.5t176 -128.5 t258 -46q63 0 114.5 9t99.5 29.5t78.5 38t82.5 50.5l55 -101q-95 -71 -218 -112t-259 -41q-169 0 -300.5 58.5t-209.5 160t-109 237t-10 289.5zM596 500q-14 -102 16.5 -163t100.5 -61q88 0 166.5 80t105.5 189q32 120 -6.5 191t-116.5 71q-96 0 -171.5 -89t-94.5 -218z" />
<glyph unicode="A" horiz-adv-x="1392" d="M2 0l723 1481h225l293 -1481h-209l-73 393h-562l-190 -393h-207zM479 584h455l-125 692z" />
<glyph unicode="B" horiz-adv-x="1327" d="M113 0l215 1481h467q259 0 377 -99q97 -81 96 -223q0 -31 -4 -65q-18 -121 -89.5 -202.5t-216.5 -135.5q244 -61 244 -283q0 -35 -6 -74q-29 -202 -178.5 -300.5t-421.5 -98.5h-483zM342 172h279q336 0 370 240q3 24 3 45q0 93 -64 143q-78 62 -219 62h-297zM438 836h299 q55 0 105.5 12t97.5 37t79.5 72t41.5 110q3 23 3 43q0 88 -62 139q-77 62 -222 62h-274z" />
<glyph unicode="C" horiz-adv-x="1386" d="M154 745q51 353 239.5 554.5t470.5 201.5q113 0 206 -36t154 -98q62 -63 94 -147q28 -75 28 -159v-21l-220 -8q-5 133 -78 211t-214 78q-182 0 -298 -143.5t-157 -434.5q-16 -105 -15 -191q0 -152 48 -246q76 -146 264 -146q123 0 220.5 78.5t143.5 210.5l213 -15 q-25 -95 -76.5 -176.5t-126 -144t-177 -98t-220.5 -35.5q-287 0 -419 206q-95 148 -94 373q0 87 14 186z" />
<glyph unicode="D" horiz-adv-x="1382" d="M113 0l215 1481q229 0 348 -2q376 -6 526 -190q111 -137 112 -367q0 -80 -14 -172q-108 -750 -856 -750h-331zM348 178h125q125 0 224.5 31t180 97t133 177t74.5 265q13 78 13 143q0 39 -5 74q-12 93 -44 158t-92 105.5t-137.5 58.5t-178.5 18h-131z" />
<glyph unicode="E" horiz-adv-x="1247" d="M113 0l215 1481h905l-29 -183h-698l-66 -460h625l-27 -181h-624l-70 -471l719 -2l-29 -184h-921z" />
<glyph unicode="F" horiz-adv-x="1167" d="M113 0l213 1481h895l-27 -181h-686l-66 -469h611l-27 -178h-610l-94 -653h-209z" />
<glyph unicode="G" horiz-adv-x="1462" d="M152 735q34 236 135.5 410t253.5 265t336 91q109 0 202 -38t154 -100.5t93 -146.5q25 -68 25 -140q0 -16 -1 -32l-222 -10q-3 123 -79.5 203t-202.5 80q-182 0 -307.5 -145.5t-165.5 -423.5q-14 -95 -14 -175q0 -165 59 -262q88 -143 270 -143q63 0 120.5 20.5t100 53.5 t77 76t55.5 87t30 87l25 124h-330l22 152l543 -2l-110 -766h-150l31 219q-179 -239 -457 -239q-280 0 -413 203q-95 146 -95 367q0 87 15 185z" />
<glyph unicode="H" horiz-adv-x="1411" d="M113 0l215 1481h204l-90 -625h627l90 625h205l-215 -1481h-205l98 674h-626l-99 -674h-204z" />
<glyph unicode="I" horiz-adv-x="577" d="M113 0l213 1481h204l-213 -1481h-204z" />
<glyph unicode="J" horiz-adv-x="776" d="M-20 23l40 198q7 -3 28.5 -12.5t36.5 -15t40 -10.5t51 -5q95 0 139 54.5t62 187.5l153 1061h205l-162 -1121q-15 -97 -38.5 -163.5t-65 -117.5t-107 -75t-157.5 -24q-114 0 -225 43z" />
<glyph unicode="K" horiz-adv-x="1353" d="M113 0l215 1481h213l-109 -750l711 750h241l-540 -576l370 -905h-229l-317 750l-275 -291l-67 -459h-213z" />
<glyph unicode="L" horiz-adv-x="1112" d="M113 0l215 1481h209l-189 -1295h653l-28 -186h-860z" />
<glyph unicode="M" horiz-adv-x="1751" d="M113 0l213 1481h288l228 -1192l577 1192h285l-213 -1481h-209l170 1186l-561 -1186h-180l-219 1176l-173 -1176h-206z" />
<glyph unicode="N" horiz-adv-x="1497" d="M113 0l215 1481h196l561 -1121l160 1121h207l-217 -1481h-182l-572 1141l-164 -1141h-204z" />
<glyph unicode="O" horiz-adv-x="1480" d="M152 735q52 361 248 563.5t483 202.5q285 0 420 -202q97 -146 97 -374q0 -88 -14 -188q-52 -357 -245 -557t-479 -200q-290 0 -426 199q-98 144 -98 371q0 86 14 185zM377 735q-14 -99 -14 -181q-1 -158 53 -252q82 -142 272 -142q393 0 475 575q14 102 14 186 q0 400 -321 400q-191 0 -314 -145t-165 -441z" />
<glyph unicode="P" horiz-adv-x="1269" d="M113 0l213 1481h487q152 0 262 -53q109 -52 163 -160q38 -76 38 -174q0 -40 -6 -84q-32 -218 -185.5 -341.5t-379.5 -123.5h-306l-77 -545h-209zM424 717h301q136 0 233 83.5t117 221.5q3 26 3 50q0 101 -60 163q-76 76 -217 76h-291z" />
<glyph unicode="Q" horiz-adv-x="1454" d="M121 737q52 361 247 562.5t482 201.5t424 -201q98 -146 98 -376q0 -87 -14 -187q-66 -457 -361 -649q21 -77 83 -118t149 -44l-27 -174q-62 0 -113 9.5t-106.5 34t-103 75.5t-82.5 127q-102 -18 -168 -18q-287 0 -424 198q-99 144 -99 371q0 88 15 188zM344 733 q-13 -97 -13 -177q0 -396 324 -396q396 0 478 575q14 101 14 185q0 159 -52 255q-80 146 -272 146t-313.5 -146.5t-165.5 -441.5z" />
<glyph unicode="R" horiz-adv-x="1345" d="M113 0l215 1481h555q229 -1 331 -109q80 -85 80 -223q0 -38 -6 -80q-43 -294 -327 -407l178 -662h-215l-160 625h-356l-91 -625h-204zM432 797h297q149 0 239 67t109 195q4 26 4 50q0 88 -50 139q-63 65 -191 65h-334z" />
<glyph unicode="S" horiz-adv-x="1368" d="M98 387l215 10q7 -118 96 -181.5t226 -63.5q147 0 251.5 62.5t119.5 168.5q3 18 3 36q0 158 -216 208l-265 65q-294 67 -294 311q0 29 4 60q28 193 192.5 314.5t392.5 121.5q120 0 214.5 -35t151.5 -94.5t85 -135.5q24 -66 24 -138v-21l-208 -8q0 134 -78.5 196 t-212.5 62q-82 0 -153.5 -27t-122 -82.5t-60.5 -130.5q-2 -16 -2 -30q-1 -58 35 -97q44 -48 172 -81l256 -66q301 -68 302 -342q0 -40 -7 -84q-25 -174 -192 -289.5t-417 -115.5q-104 0 -196 26t-163.5 75.5t-112.5 128.5t-40 177z" />
<glyph unicode="T" horiz-adv-x="1140" d="M137 1290l29 191h1077l-26 -191h-429l-186 -1290h-205l187 1290h-447z" />
<glyph unicode="U" horiz-adv-x="1415" d="M186 539l138 942h211l-142 -969q-7 -48 -8 -89q0 -109 51 -173q69 -88 221 -88q153 0 249 87t122 263l139 969h207l-139 -961q-38 -264 -184.5 -402t-419.5 -138q-275 0 -379 141q-76 103 -77 277q0 66 11 141z" />
<glyph unicode="V" horiz-adv-x="1277" d="M160 1481h198l232 -1241l596 1241h198l-710 -1481h-240z" />
<glyph unicode="W" horiz-adv-x="1873" d="M182 1481h205l135 -1143l467 1143h156l141 -1143l469 1143h203l-627 -1481h-180l-137 1114l-463 -1114h-176z" />
<glyph unicode="X" horiz-adv-x="1304" d="M-25 0l584 756l-350 725h256l252 -547l409 547h224l-547 -703l379 -778h-256l-277 592l-446 -592h-228z" />
<glyph unicode="Y" horiz-adv-x="1198" d="M150 1481h223l264 -666l453 666h225l-604 -852l-90 -629h-205l90 631z" />
<glyph unicode="Z" horiz-adv-x="1259" d="M31 0l18 113l926 1187h-719l27 181h1009l-16 -107l-938 -1192h762l-29 -182h-1040z" />
<glyph unicode="[" horiz-adv-x="624" d="M57 -330l262 1811h381l-18 -131h-207l-225 -1549h207l-19 -131h-381z" />
<glyph unicode="\" horiz-adv-x="690" d="M156 1481h153l262 -1553h-153z" />
<glyph unicode="]" horiz-adv-x="651" d="M-82 -330l21 131h206l224 1549h-205l18 131h379l-260 -1811h-383z" />
<glyph unicode="^" horiz-adv-x="935" d="M51 262l400 744q24 45 57 63t62.5 1.5t41.5 -64.5l185 -746h-154l-135 586l-305 -584h-152z" />
<glyph unicode="_" horiz-adv-x="1038" d="M16 -250l25 160l782 2l-24 -162h-783z" />
<glyph unicode="`" horiz-adv-x="579" d="M135 1348l72 153l450 -201l-47 -102z" />
<glyph unicode="a" d="M53 289q25 178 157 264t392 92l168 4l10 80q3 20 3 37q0 69 -40 111q-48 51 -142 51h-7q-84 0 -154.5 -43.5t-101.5 -126.5h-178q30 144 157 232.5t310 88.5q198 -1 287 -91q70 -71 70 -185q0 -31 -5 -64l-107 -739h-174l13 190q-71 -116 -161.5 -163t-207.5 -47 q-150 0 -230 82q-64 65 -63 170q0 27 4 57zM254 309q-2 -17 -2 -32q0 -61 38 -101q48 -48 138 -49q97 0 191 68.5t106 152.5l25 178l-138 -4q-164 -2 -253.5 -52t-104.5 -161z" />
<glyph unicode="b" horiz-adv-x="1175" d="M84 0l219 1522h205l-92 -645q23 35 51 65.5t70.5 64t100.5 53t124 19.5q132 0 214 -71.5t108 -191.5q14 -64 13 -139q0 -66 -10 -142q-37 -259 -167 -407t-334 -148q-73 0 -131 21t-91.5 55t-52.5 66.5t-28 65.5l-47 -188h-152zM352 436q-4 -31 -4 -59q0 -91 44 -155 q58 -84 173 -85q121 0 202.5 97.5t109.5 302.5q10 68 10 124q0 100 -33 162q-52 97 -178 97q-60 0 -109.5 -21t-80.5 -51t-54.5 -71.5t-34.5 -75t-18 -68.5z" />
<glyph unicode="c" horiz-adv-x="1048" d="M88 524q35 246 186 400.5t361 154.5q165 -1 261 -99q93 -95 93 -252v-13l-178 -2q-8 94 -58.5 147t-136.5 53q-128 0 -217.5 -103.5t-115.5 -281.5q-8 -54 -8 -101q0 -111 43 -185q61 -106 190 -107q86 0 153.5 56t96.5 143h174q-43 -165 -169 -259.5t-288 -94.5 q-209 0 -315 150q-80 113 -81 279q0 55 9 115z" />
<glyph unicode="d" horiz-adv-x="1167" d="M88 535q23 160 84 280.5t164 192t235 71.5q62 0 115 -17t88 -45.5t57.5 -57t34.5 -58.5l88 621h205l-221 -1522h-154l11 217q-18 -39 -44.5 -75t-69.5 -75.5t-108.5 -63t-144.5 -23.5q-202 0 -290 148q-61 104 -61 263q0 67 11 144zM291 537q-11 -72 -11 -130 q0 -108 36 -172q56 -98 176 -98q115 0 199.5 80.5t103.5 198.5l32 233q3 30 0 63.5t-16.5 71.5t-37.5 67.5t-67 49t-100 19.5q-124 0 -206 -97.5t-109 -285.5z" />
<glyph unicode="e" d="M86 518q36 253 182.5 407t364.5 154q212 1 308 -141q70 -103 70 -260q0 -59 -10 -125l-12 -74h-704q-7 -44 -7 -83q0 -49 10 -91q18 -76 74.5 -121t143.5 -45q184 0 266 174h189q-38 -108 -113.5 -184.5t-168 -112.5t-194.5 -36q-215 0 -325 144q-82 109 -83 277 q0 55 9 117zM305 618h512q5 35 5 66q0 92 -40 155q-52 85 -174 85q-123 0 -205 -92t-98 -214z" />
<glyph unicode="f" horiz-adv-x="778" d="M117 907l22 152h207l23 162q20 127 93.5 193.5t196.5 66.5h199l-22 -146h-144q-60 0 -88 -32.5t-37 -104.5l-20 -139h239l-22 -152h-236l-131 -907h-204l131 907h-207z" />
<glyph unicode="g" horiz-adv-x="1214" d="M-20 -76q6 43 28.5 79.5t53 61t57.5 41t53.5 29.5t30.5 15q-3 2 -10.5 6.5t-12 7.5t-12.5 8.5t-12.5 10t-12.5 12t-11 13.5t-9 16t-6.5 18.5t-3 21t1.5 23.5q8 54 61.5 95.5t145.5 61.5q-151 86 -151 249q0 23 3 48q23 155 160 244.5t336 89.5q94 0 158 -22.5t118 -67.5 l283 115l-29 -187l-180 -34q13 -50 13 -95q0 -22 -3 -43q-20 -143 -144.5 -240.5t-330.5 -97.5l-70 3q-162 -5 -170 -66q-4 -28 33.5 -38.5t145.5 -18.5q45 -4 215 -15q168 -10 241 -86q58 -60 58 -152q0 -24 -4 -50q-21 -153 -165.5 -241.5t-385.5 -88.5q-247 0 -369 74 q-107 64 -107 167q0 16 3 33zM186 -51q-2 -11 -2 -21q0 -70 71 -107q81 -42 251 -42q140 0 211.5 41.5t85.5 126.5q1 11 1 22q0 49 -30 79q-38 36 -129 42l-266 19h-11q-57 0 -112 -44q-61 -49 -70 -116zM379 737q-3 -20 -3 -39q0 -69 42 -110q52 -53 162 -53t176 52.5 t80 149.5q3 22 3 42q0 71 -42 115q-54 56 -156 56q-108 0 -178 -58t-84 -155z" />
<glyph unicode="h" horiz-adv-x="1171" d="M84 0l221 1522h201l-88 -611q50 71 134 115.5t198 44.5q149 0 237 -89q72 -73 71 -178q0 -24 -3 -50l-111 -754h-205l105 717q2 17 2 32q0 65 -40 105q-50 50 -144 49q-102 0 -180 -52t-91 -146l-102 -705h-205z" />
<glyph unicode="i" horiz-adv-x="546" d="M96 0l154 1059h203l-152 -1059h-205zM272 1268l33 211h215l-33 -211h-215z" />
<glyph unicode="j" horiz-adv-x="542" d="M-162 -315l21 139l94 6q67 6 97.5 37t41.5 102l158 1090h205l-160 -1096q-22 -157 -100 -230t-236 -73q-47 0 -77.5 6t-37.5 12zM274 1268l31 211h215l-31 -211h-215z" />
<glyph unicode="k" horiz-adv-x="1128" d="M84 0l221 1522h203l-141 -977l524 514h229l-424 -408l291 -651h-213l-227 518l-213 -205l-45 -313h-205z" />
<glyph unicode="l" horiz-adv-x="595" d="M116 188q2 42 7 88l180 1246h203l-178 -1223q-3 -24 -3 -44q0 -108 93 -116l53 -2l-20 -133q-63 -18 -101 -18q-68 0 -115.5 16t-71.5 43t-37 64q-11 31 -11 66q1 6 1 13z" />
<glyph unicode="m" horiz-adv-x="1734" d="M84 0l152 1059h198l-20 -146q129 166 329 166q89 0 164 -42t101 -122q61 76 150 120t181 44q59 0 110.5 -18t96 -57.5t64.5 -115.5q11 -43 11 -93q0 -39 -7 -84l-105 -711h-202l100 690q5 33 5 61q0 77 -34 115q-46 52 -133 52q-94 0 -162 -53.5t-86 -168.5l-100 -696 h-203l107 741q2 14 2 27q0 62 -44 102q-53 48 -126 48q-83 0 -155.5 -50.5t-86.5 -146.5l-104 -721h-203z" />
<glyph unicode="n" horiz-adv-x="1167" d="M84 0l154 1059h198l-20 -146q127 160 332 160q148 0 236 -101q68 -79 68 -201q0 -35 -5 -73l-103 -698h-205l99 676q4 27 4 51q0 69 -37 115q-50 60 -143 61q-102 0 -181 -51.5t-90 -144.5l-104 -707h-203z" />
<glyph unicode="o" horiz-adv-x="1110" d="M88 522q37 250 186.5 403.5t362.5 153.5q143 0 239 -71q96 -72 132 -197q22 -75 22 -164q0 -58 -10 -123q-34 -243 -181.5 -393.5t-363.5 -150.5q-144 0 -240 69q-95 69 -133 191q-23 74 -23 163q0 57 9 119zM290 334q14 -85 68.5 -139t143.5 -54q132 0 212 108.5 t105 280.5q7 57 7 108q0 47 -6 88q-12 86 -65.5 139t-142.5 53q-133 0 -214.5 -108t-106.5 -280q-8 -56 -7 -106q-1 -48 6 -90z" />
<glyph unicode="p" horiz-adv-x="1175" d="M37 -330l201 1389h202l-20 -144q147 164 332 164q181 0 277 -138q69 -99 69 -260q0 -64 -11 -138q-39 -267 -184.5 -415t-341.5 -148q-174 0 -250 167l-69 -477h-205zM334 307q29 -77 86 -123.5t131 -46.5q124 0 219.5 106.5t122.5 293.5q7 53 7 98q0 115 -46 186 q-66 99 -182 99q-103 0 -188.5 -77t-96.5 -163z" />
<glyph unicode="q" horiz-adv-x="1165" d="M88 543q38 260 175.5 398t318.5 138q46 0 88.5 -11.5t69.5 -24.5t56.5 -38t41 -37t32.5 -36l19 127h203l-203 -1389h-205l72 488q-123 -178 -316 -178q-194 0 -292 147q-70 107 -70 277q0 65 10 139zM297 541q-8 -57 -8 -106q0 -118 43 -195q62 -111 186 -111 q113 0 186.5 91t92.5 220l30 211q3 25 3 48q0 85 -44 149q-55 80 -161 80q-117 0 -208.5 -99t-119.5 -288z" />
<glyph unicode="r" horiz-adv-x="768" d="M84 0l154 1059h194l-31 -213q56 103 160.5 168t239.5 65l-29 -200q-25 1 -48 1q-150 0 -232 -56q-94 -64 -109 -179l-94 -645h-205z" />
<glyph unicode="s" horiz-adv-x="1017" d="M61 313h187q3 -62 34.5 -103t77 -58t101.5 -17q98 0 162.5 40t76.5 112q1 9 1 17q1 43 -25 71q-30 33 -98 51l-185 51q-129 35 -189 101q-47 52 -47 135q0 22 3 47q21 149 141 234t299 85q170 -1 261 -83q75 -68 75 -176q0 -24 -4 -50h-178q0 72 -49 113t-134 41 q-52 0 -97 -12t-82.5 -47.5t-45.5 -90.5q-1 -9 -1 -17q-1 -41 29 -67q36 -30 120 -51l186 -51q54 -15 94 -40t61.5 -55t34.5 -64.5t13 -67t-2 -64.5q-15 -100 -79.5 -173t-158 -108.5t-203.5 -35.5q-168 0 -274 85.5t-105 247.5z" />
<glyph unicode="t" horiz-adv-x="747" d="M102 907l23 152h170l80 311h164l-43 -311h227l-25 -152h-225l-92 -635q-3 -24 -3 -43q0 -40 14 -56q22 -23 89 -23h115l-21 -138q-49 -18 -157 -18q-160 0 -213 66q-38 48 -38 131q0 32 5 69l94 647h-164z" />
<glyph unicode="u" horiz-adv-x="1163" d="M125 338l104 723h205l-102 -701q-3 -22 -3 -41q1 -33 9 -61q14 -44 43 -68.5t64.5 -36.5t76.5 -12q97 0 171.5 60t90.5 170l101 690h205l-156 -1059h-160l6 203q-40 -113 -134 -169q-90 -54 -190 -54h-7q-65 0 -126 20.5t-111 61.5q-52 41 -76 112q-16 46 -16 101 q0 29 5 61z" />
<glyph unicode="v" horiz-adv-x="999" d="M121 1059h190l140 -795h14l373 795h188l-520 -1059h-172z" />
<glyph unicode="w" horiz-adv-x="1536" d="M127 1059h186l109 -785h12l332 785h152l112 -785h12l326 785h188l-464 -1059h-189l-110 756l-320 -756h-186z" />
<glyph unicode="x" horiz-adv-x="1118" d="M-14 0l467 551l-283 508h219l199 -359l299 359h221l-430 -508l307 -551h-219l-223 401l-338 -401h-219z" />
<glyph unicode="y" horiz-adv-x="1064" d="M-27 -309l21 135l102 -4h19q43 0 77 8q41 9 65.5 29.5t37 37t24.5 40.5l46 92l-244 1030h205l170 -795l397 795h199l-582 -1125q-83 -153 -173.5 -212.5t-205.5 -59.5q-54 0 -93.5 7t-51.5 15z" />
<glyph unicode="z" horiz-adv-x="1013" d="M14 0l17 123l680 795h-523l21 141h776l-20 -123l-678 -795h573l-20 -141h-826z" />
<glyph unicode="{" horiz-adv-x="671" d="M16 520l21 121q111 1 172.5 54t75.5 147l61 424q13 98 96.5 156.5t196.5 58.5h109l-21 -131h-74q-70 0 -98.5 -25.5t-36.5 -79.5l-61 -430q-12 -72 -49.5 -123.5t-83 -75t-97.5 -28.5q-7 -1 -10.5 -4t-1.5 -6.5t10 -4.5q37 -3 67.5 -16t56 -38.5t36 -70t2.5 -104.5 l-61 -434q-9 -59 13.5 -84t92.5 -25h72l-21 -131h-104q-117 0 -183 59t-51 160l64 439q12 79 -37 135.5t-156 56.5z" />
<glyph unicode="|" horiz-adv-x="530" d="M66 -330l292 2022h156l-293 -2022h-155z" />
<glyph unicode="}" horiz-adv-x="677" d="M-84 -330l21 131h73q70 0 98.5 25.5t36.5 79.5l62 430q17 106 82 162.5t147 64.5q7 1 10.5 4t1.5 6.5t-10 4.5q-37 3 -67.5 16t-56 38.5t-36 70t-2.5 104.5l62 434q9 59 -14 84t-93 25h-71l20 131h105q117 0 182.5 -59t50.5 -160l-63 -439q-12 -79 36.5 -135.5 t155.5 -56.5l-20 -121q-111 -1 -172.5 -54t-75.5 -147l-62 -424q-13 -98 -96.5 -156.5t-195.5 -58.5h-109z" />
<glyph unicode="~" horiz-adv-x="1136" d="M145 725q82 73 148.5 110t148.5 37q49 0 97.5 -17t81 -38t77 -38t86.5 -17q121 0 215 121l45 -117q-49 -67 -121.5 -106t-156.5 -39q-52 0 -101 17t-80.5 38t-76 38t-88.5 17q-66 0 -120 -32.5t-112 -88.5z" />
<glyph unicode="&#xa1;" horiz-adv-x="520" d="M18 -330l191 996h133l-78 -996h-246zM174 805l35 254h237l-34 -254h-238z" />
<glyph unicode="&#xa2;" horiz-adv-x="1107" d="M137 752q32 216 158 363t307 181l14 185h146l-14 -176q151 -14 237 -111t82 -252l-184 -2q-8 94 -60 147.5t-139 53.5q-134 0 -227 -103.5t-121 -281.5q-26 -180 37 -287t196 -107q89 0 159.5 56t100.5 143h179q-35 -126 -119 -211.5t-201 -120.5l-18 -229h-144l17 207 h-6q-216 0 -326.5 151t-73.5 394z" />
<glyph unicode="&#xa3;" horiz-adv-x="1216" d="M-41 0l27 178h71q77 0 134.5 67t76.5 201q15 105 15 256h-197l18 129h175v173q-4 113 34.5 209t106.5 157.5t155 96t181 34.5q142 0 243 -70t131 -182l-188 -63q-24 73 -66 106t-118 33q-92 0 -160.5 -58t-83.5 -159q-16 -115 4 -274h305l-18 -129h-291q-3 -144 -25 -234 q-38 -187 -155 -291h321q98 0 160 37.5t107 128.5l168 -45q-135 -301 -449 -301h-682z" />
<glyph unicode="&#xa4;" horiz-adv-x="1083" d="M80 393l137 123q-50 99 -35 229q17 116 90 213q13 15 2 29l-90 113l111 98l100 -127q112 74 228 74q114 0 198 -66q12 -9 23 2l123 113l77 -100l-133 -121q53 -103 35 -228q-16 -123 -92 -215q-7 -15 -2 -22l94 -109l-110 -100l-97 121q-116 -76 -229 -76t-199 64 q-14 10 -26 -2l-127 -115zM334 745q-15 -101 41.5 -174t156.5 -73q99 0 177.5 73t93.5 174q14 100 -43 174t-156 74q-98 0 -177 -74t-93 -174z" />
<glyph unicode="&#xa5;" horiz-adv-x="1214" d="M139 1481h267l262 -662l456 662h217l-567 -785h270l-18 -127h-295l-26 -176h294l-18 -127h-295l-39 -266h-231l37 264h-295l18 127h295l27 178h-295l18 127h250z" />
<glyph unicode="&#xa6;" horiz-adv-x="530" d="M66 -330l118 824h156l-119 -824h-155zM240 868l118 824h156l-119 -824h-155z" />
<glyph unicode="&#xa7;" horiz-adv-x="974" d="M10 88l142 72q80 -168 270 -168q92 0 153 36.5t70 102.5q8 53 -25 95.5t-128 84.5l-152 66q-131 55 -183.5 128.5t-37.5 176.5q13 92 73.5 160.5t151.5 105.5q-91 58 -121 120.5t-20 139.5q21 127 134 210t279 83q130 0 224.5 -61t130.5 -150l-144 -71q-91 141 -221 141 q-90 0 -147 -36t-66 -97q-9 -90 121 -152l150 -65q144 -64 201 -143.5t40 -188.5q-23 -170 -207 -262q82 -54 117 -116.5t23 -145.5q-21 -135 -138.5 -219.5t-298.5 -84.5q-145 0 -250.5 67t-140.5 171zM297 711q-8 -56 20.5 -91t120.5 -77l105 -51q67 -6 121.5 41.5 t60.5 115.5q6 61 -22.5 104t-112.5 81l-94 40q-75 -6 -132.5 -54t-66.5 -109z" />
<glyph unicode="&#xa8;" horiz-adv-x="569" d="M104 1268l31 211h215l-31 -211h-215zM457 1268l30 211h215l-30 -211h-215z" />
<glyph unicode="&#xa9;" horiz-adv-x="1601" d="M104 741q29 205 151.5 380.5t304.5 277.5t378 102q146 0 271 -60.5t207 -162.5t119 -242.5t15 -294.5q-22 -156 -100 -297.5t-190 -242.5t-254.5 -161t-288.5 -60q-147 0 -272 60t-207.5 161.5t-119 242.5t-14.5 297zM244 741q-20 -141 7.5 -259t94 -198t167 -124.5 t224.5 -44.5q162 0 305.5 75.5t242.5 219.5t126 331q20 138 -8.5 256.5t-95 199.5t-167.5 127t-222 46q-251 0 -442 -175t-232 -454zM457 743q28 190 150.5 310.5t287.5 120.5q118 0 189.5 -67t101.5 -169l-154 -31q-43 142 -149 142q-94 0 -163 -80.5t-89 -220.5 q-21 -144 26 -224t146 -80q130 0 225 152l107 -37q-35 -62 -83 -113t-123 -89t-157 -38q-166 0 -254.5 118t-60.5 306z" />
<glyph unicode="&#xaa;" horiz-adv-x="776" d="M154 997q14 97 102.5 156t237.5 68l100 8l4 47q10 63 -20.5 92t-90.5 29q-49 0 -87.5 -21.5t-73.5 -75.5l-111 33q94 164 293 164q248 0 219 -219q-34 -234 -35 -244q-9 -67 -12 -139l2 -72h-133l-2 84q-59 -51 -108 -73.5t-107 -22.5q-96 0 -143 49.5t-35 136.5z M287 1006q-5 -45 22.5 -71t79.5 -26q70 0 123 47q48 39 53 78l15 107l-82 -4q-95 -7 -149 -41t-62 -90z" />
<glyph unicode="&#xab;" horiz-adv-x="913" d="M84 514l305 389h115l-244 -389l131 -373h-112zM434 514l305 389h115l-244 -389l131 -373h-112z" />
<glyph unicode="&#xac;" horiz-adv-x="1110" d="M143 664l25 159l860 2l-8 -51l-62 -405h-167l40 297z" />
<glyph unicode="&#xad;" horiz-adv-x="761" d="M115 446l22 162l502 2l-23 -161z" />
<glyph unicode="&#xae;" horiz-adv-x="1058" d="M143 1024q29 198 181.5 337.5t341.5 139.5q122 0 216.5 -63.5t139 -173.5t25.5 -240q-28 -197 -180 -336t-339 -139q-124 0 -219.5 63t-140 172.5t-25.5 239.5zM246 1024q-25 -171 56.5 -274t240.5 -103q156 0 267 103t136 274q25 170 -57 274.5t-238 104.5 q-158 0 -269 -104t-136 -275zM385 784l70 473h204q75 0 112 -31t30 -89q-13 -92 -113 -127l55 -226h-98l-43 215h-94l-31 -215h-92zM518 1073h105q73 0 84 55q3 26 -14 42t-58 16h-100z" />
<glyph unicode="&#xaf;" horiz-adv-x="673" d="M139 1313l23 145h604l-21 -145h-606z" />
<glyph unicode="&#xb0;" horiz-adv-x="921" d="M268 1386q20 143 121 235.5t236 92.5q134 0 208 -93t54 -235q-22 -142 -123.5 -233.5t-235.5 -91.5t-208 91.5t-52 233.5zM397 1384q-9 -88 30.5 -141t119.5 -53q79 0 135 53.5t68 140.5q12 88 -28 141.5t-122 53.5q-78 0 -134.5 -54.5t-68.5 -140.5z" />
<glyph unicode="&#xb1;" horiz-adv-x="1112" d="M66 111l24 159h858l-22 -157zM170 823l23 160h354l53 373h156l-54 -371h351l-25 -160h-350l-53 -368h-156l53 366h-352z" />
<glyph unicode="&#xb2;" horiz-adv-x="720" d="M98 786l13 76l6 41q10 68 43.5 123t80 92t101 68.5t108.5 59.5t99.5 57.5t77.5 69.5t39 89q9 69 -30.5 111.5t-115.5 42.5q-83 0 -141 -49t-78 -135h-127q21 129 118 214t249 85q137 0 207 -73.5t53 -195.5q-10 -68 -43.5 -122t-79 -90t-99 -66t-106.5 -56t-97.5 -54 t-75.5 -67.5t-38 -88.5l-2 -17h463l-18 -115h-607z" />
<glyph unicode="&#xb3;" horiz-adv-x="780" d="M125 1059h127q0 -84 46 -129t124 -45q94 0 156 44.5t73 117.5q10 77 -42 121t-144 46l-80 3l14 108l76 2q84 3 146 48.5t71 109.5q8 58 -36.5 97.5t-127.5 39.5q-75 0 -135 -45t-76 -133h-127q20 133 120.5 210t234.5 77q145 0 223 -63t61 -179q-20 -151 -196 -211 q83 -26 125.5 -85.5t29.5 -148.5q-18 -126 -126 -199t-261 -71q-141 0 -216 76.5t-60 208.5z" />
<glyph unicode="&#xb4;" horiz-adv-x="577" d="M131 1300l508 201l27 -153l-519 -150z" />
<glyph unicode="&#xb5;" horiz-adv-x="1183" d="M29 -338l207 1423h208l-106 -729q-9 -73 39 -124.5t129 -51.5q143 0 291 174l104 731h213l-162 -1085h-202l24 168q-90 -75 -154.5 -109.5t-130.5 -38.5q-120 -10 -192 54l-57 -412h-211z" />
<glyph unicode="&#xb6;" horiz-adv-x="1128" d="M160 1034q13 89 53 168.5t103.5 142t155.5 99.5t200 37h444l-18 -125h-119l-221 -1526h-133l221 1526h-101l-221 -1526h-133l113 780q-181 7 -276.5 125.5t-67.5 298.5z" />
<glyph unicode="&#xb7;" horiz-adv-x="475" d="M123 627l37 239h237l-35 -239h-239z" />
<glyph unicode="&#xb8;" horiz-adv-x="471" d="M-102 -373l45 84q56 -49 129 -49q101 0 114 74q6 44 -28 65.5t-117 22.5q-21 0 -10 14l96 172h102l-63 -123q92 -4 128.5 -48t29.5 -103q-10 -74 -79 -117t-161 -43q-116 0 -186 51z" />
<glyph unicode="&#xb9;" horiz-adv-x="602" d="M150 1511l12 84q114 0 164 27.5t63 87.5h90l-137 -932h-131l106 733h-167z" />
<glyph unicode="&#xba;" horiz-adv-x="770" d="M176 1153q22 155 117 250.5t229 95.5t203 -96t47 -250q-22 -152 -116 -246t-232 -94q-136 0 -203 94.5t-45 245.5zM315 1159q-17 -116 14 -178.5t109 -62.5q79 0 129.5 62.5t65.5 178.5q15 112 -16.5 174t-108.5 62q-78 0 -128 -62t-65 -174z" />
<glyph unicode="&#xbb;" horiz-adv-x="913" d="M51 141l240 373l-129 389h112l193 -389l-303 -373h-113zM401 141l240 373l-131 389h115l192 -389l-303 -373h-113z" />
<glyph unicode="&#xbc;" horiz-adv-x="1888" d="M119 1298l12 84q114 0 164 27.5t63 87.5h91l-138 -932h-131l107 733h-168zM301 -8l586 895l536 610l-581 -893zM1073 231l17 117l493 584h129l-84 -586h146l-19 -115h-143l-33 -231h-127l35 231h-414zM1210 346h291l62 416z" />
<glyph unicode="&#xbd;" horiz-adv-x="1828" d="M119 1298l12 84q114 0 164 27.5t63 87.5h91l-138 -932h-131l107 733h-168zM301 -8l586 895l536 610l-581 -893zM1065 0l12 76l6 41q10 68 43.5 123t80 92t101 68.5t108.5 59.5t99.5 57.5t77.5 69.5t39 89q9 69 -30 111t-115 42q-83 0 -141 -49t-78 -135h-127 q21 130 117.5 214.5t248.5 84.5q137 0 207 -73t53 -195q-9 -60 -36 -109.5t-64 -82.5t-82.5 -63.5t-91.5 -52t-91 -47t-81 -50.5t-61 -61t-31 -79l-2 -16h463l-19 -115h-606z" />
<glyph unicode="&#xbe;" horiz-adv-x="2066" d="M94 844h127q0 -84 46 -129t124 -45q95 0 157 44t73 117q10 77 -42.5 121.5t-144.5 46.5l-80 2l15 109l75 2q84 3 146.5 48.5t71.5 109.5q8 58 -36.5 97.5t-127.5 39.5q-75 0 -135 -45t-76 -133h-127q20 134 120 210.5t234 76.5q145 0 223.5 -63t61.5 -179 q-9 -71 -59 -126t-138 -85q83 -26 126 -85.5t30 -148.5q-18 -126 -126 -199t-261 -71q-142 0 -217 77t-60 208zM479 -8l586 895l537 610l-582 -893zM1249 231l17 117l493 584h129l-84 -586h146l-19 -115h-143l-33 -231h-127l35 231h-414zM1386 346h291l62 416z" />
<glyph unicode="&#xbf;" horiz-adv-x="1034" d="M-8 6q10 68 39 125t68.5 97.5t85.5 77.5t92 73.5t85.5 76t68.5 95t38 121.5h172q-10 -76 -37.5 -141t-64.5 -110.5t-79.5 -85.5t-85 -75.5t-78 -70.5t-61 -80t-32.5 -95q-12 -92 45 -148t162 -56q93 0 184.5 56t132.5 140l174 -51q-82 -145 -216 -225t-298 -80 q-208 0 -312 99t-83 257zM455 805l34 254h238l-35 -254h-237z" />
<glyph unicode="&#xc0;" horiz-adv-x="1392" d="M2 0l723 1481h225l293 -1481h-209l-73 393h-562l-190 -393h-207zM479 584h455l-125 692zM594 1769l72 154l450 -201l-47 -102z" />
<glyph unicode="&#xc1;" horiz-adv-x="1392" d="M2 0l723 1481h225l293 -1481h-209l-73 393h-562l-190 -393h-207zM479 584h455l-125 692zM608 1722l508 201l27 -154l-518 -149z" />
<glyph unicode="&#xc2;" horiz-adv-x="1392" d="M2 0l723 1481h225l293 -1481h-209l-73 393h-562l-190 -393h-207zM479 584h455l-125 692zM518 1669l283 242h143l207 -242h-182l-113 139l-166 -139h-172z" />
<glyph unicode="&#xc3;" horiz-adv-x="1392" d="M2 0l723 1481h225l293 -1481h-209l-73 393h-562l-190 -393h-207zM479 584h455l-125 692zM588 1817q47 39 86.5 59t93.5 20q50 0 131 -28.5t123 -28.5q70 0 152 59l14 -122q-83 -62 -184 -62q-54 0 -128.5 26.5t-117.5 26.5q-45 0 -76.5 -14t-75.5 -45z" />
<glyph unicode="&#xc4;" horiz-adv-x="1392" d="M2 0l723 1481h225l293 -1481h-209l-73 393h-562l-190 -393h-207zM479 584h455l-125 692zM582 1688l30 210h215l-30 -210h-215zM934 1688l31 210h215l-31 -210h-215z" />
<glyph unicode="&#xc5;" horiz-adv-x="1392" d="M2 0l723 1481h225l293 -1481h-209l-73 393h-562l-190 -393h-207zM479 584h455l-125 692zM684 1815q10 86 79.5 146t154.5 60t135 -61t37 -150q-12 -89 -80.5 -150t-155.5 -61q-85 0 -134 62.5t-36 153.5zM780 1810q-7 -43 20 -76.5t68 -33.5q42 0 76.5 33t42.5 77 q6 47 -19.5 78t-68.5 31q-42 0 -77 -31t-42 -78z" />
<glyph unicode="&#xc6;" horiz-adv-x="1945" d="M-74 0l985 1481h1020l-28 -181h-668l-68 -464h488l-27 -179h-487l-68 -477h692l-26 -180h-926l57 399h-475l-262 -399h-207zM504 584h393l109 749z" />
<glyph unicode="&#xc7;" horiz-adv-x="1386" d="M154 745q51 353 239.5 554.5t470.5 201.5q113 0 206 -36t154.5 -98t93.5 -146.5t28 -180.5l-220 -8q-5 133 -78 211t-214 78q-182 0 -298 -143.5t-157 -434.5q-43 -290 33 -436.5t264 -146.5q123 0 220.5 78.5t143.5 210.5l213 -15q-48 -187 -193.5 -313t-359.5 -139 l-49 -95q92 -4 128.5 -48t29.5 -103q-10 -74 -79 -117t-161 -43q-116 0 -186 51l45 84q56 -49 129 -49q102 0 115 74q6 44 -28.5 65.5t-117.5 22.5q-21 0 -10 14l80 144q-258 22 -374 225t-68 538z" />
<glyph unicode="&#xc8;" horiz-adv-x="1247" d="M113 0l215 1481h905l-29 -183h-698l-66 -460h625l-27 -181h-624l-70 -471l719 -2l-29 -184h-921zM516 1769l72 154l450 -201l-47 -102z" />
<glyph unicode="&#xc9;" horiz-adv-x="1247" d="M113 0l215 1481h905l-29 -183h-698l-66 -460h625l-27 -181h-624l-70 -471l719 -2l-29 -184h-921zM532 1722l508 201l27 -154l-518 -149z" />
<glyph unicode="&#xca;" horiz-adv-x="1247" d="M113 0l215 1481h905l-29 -183h-698l-66 -460h625l-27 -181h-624l-70 -471l719 -2l-29 -184h-921zM469 1669l283 242h143l207 -242h-182l-113 139l-166 -139h-172z" />
<glyph unicode="&#xcb;" horiz-adv-x="1247" d="M113 0l215 1481h905l-29 -183h-698l-66 -460h625l-27 -181h-624l-70 -471l719 -2l-29 -184h-921zM504 1688l31 210h215l-31 -210h-215zM856 1688l31 210h215l-31 -210h-215z" />
<glyph unicode="&#xcc;" horiz-adv-x="577" d="M113 0l213 1481h204l-213 -1481h-204zM186 1769l72 154l451 -201l-47 -102z" />
<glyph unicode="&#xcd;" horiz-adv-x="577" d="M113 0l213 1481h204l-213 -1481h-204zM203 1722l508 201l26 -154l-518 -149z" />
<glyph unicode="&#xce;" horiz-adv-x="577" d="M113 0l213 1481h204l-213 -1481h-204zM139 1669l283 242h143l207 -242h-182l-113 139l-166 -139h-172z" />
<glyph unicode="&#xcf;" horiz-adv-x="577" d="M113 0l213 1481h204l-213 -1481h-204zM174 1688l31 210h215l-31 -210h-215zM526 1688l31 210h215l-31 -210h-215z" />
<glyph unicode="&#xd0;" horiz-adv-x="1462" d="M96 655l17 164h198l97 662q229 0 348 -2q377 -6 526.5 -190t97.5 -539q-53 -369 -265.5 -559.5t-588.5 -190.5h-333l94 655h-191zM428 178h125q256 0 413 134.5t201 435.5q20 124 8 217t-44.5 158t-92.5 105.5t-137 58.5t-178 18h-133l-70 -486h316l-17 -164h-323z" />
<glyph unicode="&#xd1;" horiz-adv-x="1497" d="M113 0l215 1481h196l561 -1121l160 1121h207l-217 -1481h-182l-572 1141l-164 -1141h-204zM639 1817q47 39 86.5 59t93.5 20q51 0 132 -28.5t122 -28.5q70 0 152 59l14 -122q-83 -62 -184 -62q-54 0 -128.5 26.5t-117.5 26.5q-45 0 -76.5 -14t-75.5 -45z" />
<glyph unicode="&#xd2;" horiz-adv-x="1480" d="M152 735q52 361 248 563.5t483 202.5q285 0 420 -202t83 -562q-52 -357 -245 -557t-479 -200q-290 0 -426 199t-84 556zM377 735q-42 -292 39.5 -433.5t271.5 -141.5q393 0 475 575q82 586 -307 586q-191 0 -314 -145t-165 -441zM629 1769l71 154l451 -201l-47 -102z" />
<glyph unicode="&#xd3;" horiz-adv-x="1480" d="M152 735q52 361 248 563.5t483 202.5q285 0 420 -202t83 -562q-52 -357 -245 -557t-479 -200q-290 0 -426 199t-84 556zM377 735q-42 -292 39.5 -433.5t271.5 -141.5q393 0 475 575q82 586 -307 586q-191 0 -314 -145t-165 -441zM645 1722l508 201l27 -154l-518 -149z " />
<glyph unicode="&#xd4;" horiz-adv-x="1480" d="M152 735q52 361 248 563.5t483 202.5q285 0 420 -202t83 -562q-52 -357 -245 -557t-479 -200q-290 0 -426 199t-84 556zM377 735q-42 -292 39.5 -433.5t271.5 -141.5q393 0 475 575q82 586 -307 586q-191 0 -314 -145t-165 -441zM582 1669l282 242h144l206 -242h-182 l-112 139l-166 -139h-172z" />
<glyph unicode="&#xd5;" horiz-adv-x="1480" d="M152 735q52 361 248 563.5t483 202.5q285 0 420 -202t83 -562q-52 -357 -245 -557t-479 -200q-290 0 -426 199t-84 556zM377 735q-42 -292 39.5 -433.5t271.5 -141.5q393 0 475 575q82 586 -307 586q-191 0 -314 -145t-165 -441zM623 1817q47 39 86.5 59t93.5 20 q51 0 131.5 -28.5t122.5 -28.5q69 0 151 59l15 -122q-83 -62 -185 -62q-54 0 -128 26.5t-117 26.5q-45 0 -76.5 -14t-75.5 -45z" />
<glyph unicode="&#xd6;" horiz-adv-x="1480" d="M152 735q52 361 248 563.5t483 202.5q285 0 420 -202t83 -562q-52 -357 -245 -557t-479 -200q-290 0 -426 199t-84 556zM377 735q-42 -292 39.5 -433.5t271.5 -141.5q393 0 475 575q82 586 -307 586q-191 0 -314 -145t-165 -441zM616 1688l31 210h215l-31 -210h-215z M969 1688l30 210h215l-30 -210h-215z" />
<glyph unicode="&#xd7;" horiz-adv-x="1083" d="M111 426l350 319l-258 320l127 113l258 -318l350 320l94 -113l-352 -322l258 -319l-127 -115l-258 320l-350 -320z" />
<glyph unicode="&#xd8;" horiz-adv-x="1482" d="M-8 80l190 188q-75 183 -35 467q52 361 248.5 563.5t483.5 202.5q263 0 397 -172l182 176l88 -102l-196 -197q74 -190 34 -469q-52 -357 -246.5 -557t-480.5 -200q-268 0 -397 167l-180 -174zM395 457l713 721q-66 147 -256 147q-174 0 -283.5 -127.5t-156.5 -388.5 q-35 -198 -17 -352zM424 297q72 -139 262 -139q170 0 276.5 120t151.5 369q36 194 21 371z" />
<glyph unicode="&#xd9;" horiz-adv-x="1415" d="M186 539l138 942h211l-142 -969q-26 -174 43 -262t221 -88q153 0 249 87t122 263l139 969h207l-139 -961q-38 -264 -184.5 -402t-419.5 -138q-275 0 -379.5 141t-65.5 418zM606 1769l72 154l450 -201l-47 -102z" />
<glyph unicode="&#xda;" horiz-adv-x="1415" d="M186 539l138 942h211l-142 -969q-26 -174 43 -262t221 -88q153 0 249 87t122 263l139 969h207l-139 -961q-38 -264 -184.5 -402t-419.5 -138q-275 0 -379.5 141t-65.5 418zM623 1722l507 201l27 -154l-518 -149z" />
<glyph unicode="&#xdb;" horiz-adv-x="1415" d="M186 539l138 942h211l-142 -969q-26 -174 43 -262t221 -88q153 0 249 87t122 263l139 969h207l-139 -961q-38 -264 -184.5 -402t-419.5 -138q-275 0 -379.5 141t-65.5 418zM559 1669l283 242h143l207 -242h-182l-113 139l-166 -139h-172z" />
<glyph unicode="&#xdc;" horiz-adv-x="1415" d="M186 539l138 942h211l-142 -969q-26 -174 43 -262t221 -88q153 0 249 87t122 263l139 969h207l-139 -961q-38 -264 -184.5 -402t-419.5 -138q-275 0 -379.5 141t-65.5 418zM594 1688l31 210h215l-31 -210h-215zM946 1688l31 210h215l-31 -210h-215z" />
<glyph unicode="&#xdd;" horiz-adv-x="1198" d="M150 1481h223l264 -666l453 666h225l-604 -852l-90 -629h-205l90 631zM496 1724l508 201l26 -153l-518 -150z" />
<glyph unicode="&#xde;" horiz-adv-x="1335" d="M113 0l213 1481h235l-45 -301h311q116 0 208 -25.5t157.5 -75.5t94 -130.5t13.5 -184.5q-30 -214 -183 -324t-384 -110h-340l-47 -330h-233zM420 508h311q136 0 224 65t108 193q17 121 -56 179.5t-216 58.5h-299z" />
<glyph unicode="&#xdf;" horiz-adv-x="1191" d="M113 0l123 881h-123l20 151h123q31 200 159 324.5t339 124.5q169 0 243 -80t58 -207q-8 -56 -30 -98.5t-61.5 -76.5t-78 -56.5t-101.5 -53.5q-60 -32 -81 -50t-27 -48q-3 -31 13.5 -45.5t68.5 -32.5q8 -4 24 -11q71 -33 109.5 -55t91 -68t70.5 -112t6 -153 q-23 -168 -141 -261t-285 -93q-71 0 -137 18.5t-109 50.5l86 137q39 -30 76.5 -45.5t93.5 -15.5q96 0 160.5 48.5t77.5 137.5q5 39 -3.5 70t-22.5 51t-45.5 40.5t-54.5 31t-67 28.5q-41 17 -69.5 34.5t-56.5 45t-38.5 67.5t-3.5 91q10 72 54 123.5t128 101.5q7 5 32 21 t33.5 22.5t28.5 22t29 26.5t21.5 27.5t18.5 34.5t9 39q9 67 -31.5 107t-123.5 40q-105 0 -176.5 -69.5t-89.5 -196.5l-150 -1069h-190z" />
<glyph unicode="&#xe0;" d="M53 289q25 178 157 264t392 92l168 4l10 80q13 95 -37 148t-149 51q-84 0 -154.5 -43.5t-101.5 -126.5h-178q30 144 157 232.5t310 88.5q198 0 287 -90.5t65 -249.5l-107 -739h-174l13 190q-71 -116 -161.5 -163t-207.5 -47q-149 0 -229.5 82.5t-59.5 226.5zM254 309 q-12 -85 36.5 -133.5t137.5 -48.5q97 0 191 68.5t106 152.5l25 178l-138 -4q-164 -2 -253.5 -52t-104.5 -161zM381 1348l72 153l450 -201l-47 -102z" />
<glyph unicode="&#xe1;" d="M53 289q25 178 157 264t392 92l168 4l10 80q13 95 -37 148t-149 51q-84 0 -154.5 -43.5t-101.5 -126.5h-178q30 144 157 232.5t310 88.5q198 0 287 -90.5t65 -249.5l-107 -739h-174l13 190q-71 -116 -161.5 -163t-207.5 -47q-149 0 -229.5 82.5t-59.5 226.5zM254 309 q-12 -85 36.5 -133.5t137.5 -48.5q97 0 191 68.5t106 152.5l25 178l-138 -4q-164 -2 -253.5 -52t-104.5 -161zM395 1300l508 201l27 -153l-518 -150z" />
<glyph unicode="&#xe2;" d="M53 289q25 178 157 264t392 92l168 4l10 80q13 95 -37 148t-149 51q-84 0 -154.5 -43.5t-101.5 -126.5h-178q30 144 157 232.5t310 88.5q198 0 287 -90.5t65 -249.5l-107 -739h-174l13 190q-71 -116 -161.5 -163t-207.5 -47q-149 0 -229.5 82.5t-59.5 226.5zM254 309 q-12 -85 36.5 -133.5t137.5 -48.5q97 0 191 68.5t106 152.5l25 178l-138 -4q-164 -2 -253.5 -52t-104.5 -161zM332 1247l282 242h144l207 -242h-183l-112 139l-166 -139h-172z" />
<glyph unicode="&#xe3;" d="M53 289q25 178 157 264t392 92l168 4l10 80q13 95 -37 148t-149 51q-84 0 -154.5 -43.5t-101.5 -126.5h-178q30 144 157 232.5t310 88.5q198 0 287 -90.5t65 -249.5l-107 -739h-174l13 190q-71 -116 -161.5 -163t-207.5 -47q-149 0 -229.5 82.5t-59.5 226.5zM254 309 q-12 -85 36.5 -133.5t137.5 -48.5q97 0 191 68.5t106 152.5l25 178l-138 -4q-164 -2 -253.5 -52t-104.5 -161zM373 1395q47 40 86.5 60t93.5 20q51 0 132 -29t122 -29q68 0 151 60l15 -123q-83 -62 -185 -62q-54 0 -128 27t-117 27q-45 0 -76 -14t-76 -46z" />
<glyph unicode="&#xe4;" d="M53 289q25 178 157 264t392 92l168 4l10 80q13 95 -37 148t-149 51q-84 0 -154.5 -43.5t-101.5 -126.5h-178q30 144 157 232.5t310 88.5q198 0 287 -90.5t65 -249.5l-107 -739h-174l13 190q-71 -116 -161.5 -163t-207.5 -47q-149 0 -229.5 82.5t-59.5 226.5zM254 309 q-12 -85 36.5 -133.5t137.5 -48.5q97 0 191 68.5t106 152.5l25 178l-138 -4q-164 -2 -253.5 -52t-104.5 -161zM367 1266l30 211h215l-30 -211h-215zM719 1266l31 211h215l-31 -211h-215z" />
<glyph unicode="&#xe5;" d="M53 289q25 178 157 264t392 92l168 4l10 80q13 95 -37 148t-149 51q-84 0 -154.5 -43.5t-101.5 -126.5h-178q30 144 157 232.5t310 88.5q198 0 287 -90.5t65 -249.5l-107 -739h-174l13 190q-71 -116 -161.5 -163t-207.5 -47q-149 0 -229.5 82.5t-59.5 226.5zM254 309 q-12 -85 36.5 -133.5t137.5 -48.5q97 0 191 68.5t106 152.5l25 178l-138 -4q-164 -2 -253.5 -52t-104.5 -161zM469 1393q10 86 79 146t154 60t135 -60.5t37 -149.5q-12 -89 -80 -150t-155 -61q-85 0 -134 62t-36 153zM565 1389q-7 -43 20 -77t68 -34q42 0 76.5 33.5 t42.5 77.5q6 47 -19.5 77.5t-68.5 30.5q-42 0 -77 -31t-42 -77z" />
<glyph unicode="&#xe6;" horiz-adv-x="1792" d="M51 276q22 156 160 248t385 109l178 14l10 78q14 100 -33 155.5t-151 55.5q-157 0 -278 -168l-166 53q82 128 198 193t281 65q259 0 315 -174q145 174 365 174q211 0 317.5 -157t67.5 -435l-748 -2q-21 -140 52.5 -247t197.5 -107q69 0 131 26.5t100 59t89 86.5l120 -67 q-186 -256 -485 -256q-72 0 -132.5 18t-104 51t-71.5 64t-54 71q-5 10 -15 0q-45 -44 -84.5 -75t-95.5 -63t-124 -49t-146 -17q-152 0 -225.5 80t-53.5 216zM258 291q-11 -80 33 -126.5t135 -43.5q114 5 202.5 68t100.5 151l27 182l-148 -10q-152 -12 -244.5 -68.5 t-105.5 -152.5zM977 616l536 -2q13 83 -7.5 156.5t-75 120.5t-132.5 47q-118 0 -209 -87.5t-112 -234.5z" />
<glyph unicode="&#xe7;" horiz-adv-x="1048" d="M88 524q35 246 186 400.5t361 154.5q165 0 261.5 -98.5t92.5 -265.5l-178 -2q-8 94 -58.5 147t-136.5 53q-128 0 -217.5 -103.5t-115.5 -281.5q-26 -180 35 -286.5t190 -106.5q86 0 153.5 56t96.5 143h174q-40 -153 -151.5 -245.5t-258.5 -106.5l-49 -95q92 -4 128.5 -48 t29.5 -103q-10 -74 -79 -117t-161 -43q-116 0 -186 51l45 84q56 -49 129 -49q102 0 115 74q6 44 -28.5 65.5t-117.5 22.5q-21 0 -10 14l80 146q-182 20 -272 167.5t-58 372.5z" />
<glyph unicode="&#xe8;" d="M86 518q36 253 182.5 407t364.5 154q212 0 308 -141.5t60 -384.5l-12 -74h-704q-15 -98 3.5 -174t74.5 -121t143 -45q184 0 266 174h189q-38 -108 -113.5 -184.5t-168 -112.5t-194.5 -36q-216 0 -325.5 144.5t-73.5 393.5zM305 618h512q18 136 -34.5 221t-174.5 85 q-123 0 -205 -92t-98 -214zM387 1348l72 153l450 -201l-47 -102z" />
<glyph unicode="&#xe9;" d="M86 518q36 253 182.5 407t364.5 154q212 0 308 -141.5t60 -384.5l-12 -74h-704q-15 -98 3.5 -174t74.5 -121t143 -45q184 0 266 174h189q-38 -108 -113.5 -184.5t-168 -112.5t-194.5 -36q-216 0 -325.5 144.5t-73.5 393.5zM305 618h512q18 136 -34.5 221t-174.5 85 q-123 0 -205 -92t-98 -214zM401 1300l508 201l27 -153l-518 -150z" />
<glyph unicode="&#xea;" d="M86 518q36 253 182.5 407t364.5 154q212 0 308 -141.5t60 -384.5l-12 -74h-704q-15 -98 3.5 -174t74.5 -121t143 -45q184 0 266 174h189q-38 -108 -113.5 -184.5t-168 -112.5t-194.5 -36q-216 0 -325.5 144.5t-73.5 393.5zM305 618h512q18 136 -34.5 221t-174.5 85 q-123 0 -205 -92t-98 -214zM338 1247l283 242h143l207 -242h-183l-112 139l-166 -139h-172z" />
<glyph unicode="&#xeb;" d="M86 518q36 253 182.5 407t364.5 154q212 0 308 -141.5t60 -384.5l-12 -74h-704q-15 -98 3.5 -174t74.5 -121t143 -45q184 0 266 174h189q-38 -108 -113.5 -184.5t-168 -112.5t-194.5 -36q-216 0 -325.5 144.5t-73.5 393.5zM305 618h512q18 136 -34.5 221t-174.5 85 q-123 0 -205 -92t-98 -214zM373 1266l30 211h215l-30 -211h-215zM725 1266l31 211h215l-31 -211h-215z" />
<glyph unicode="&#xec;" horiz-adv-x="534" d="M90 0l154 1059h205l-154 -1059h-205zM104 1348l72 153l451 -201l-47 -102z" />
<glyph unicode="&#xed;" horiz-adv-x="534" d="M90 0l154 1059h205l-154 -1059h-205zM119 1300l508 201l26 -153l-518 -150z" />
<glyph unicode="&#xee;" horiz-adv-x="534" d="M57 1247l283 242h143l207 -242h-182l-113 139l-166 -139h-172zM90 0l154 1059h205l-154 -1059h-205z" />
<glyph unicode="&#xef;" horiz-adv-x="534" d="M90 0l154 1059h205l-154 -1059h-205zM92 1266l31 211h215l-31 -211h-215zM444 1266l31 211h215l-31 -211h-215z" />
<glyph unicode="&#xf0;" horiz-adv-x="1155" d="M84 504q34 233 191.5 383.5t365.5 150.5q120 0 178 -77q-52 167 -196 286l-306 -168l-36 82l264 142q-75 49 -197 102l135 98q127 -46 230 -108l209 112l30 -84l-159 -88q350 -282 274 -803q-35 -250 -191 -401t-382 -151q-142 0 -243.5 67.5t-145 187t-21.5 269.5z M293 510q-25 -170 38.5 -275.5t190.5 -105.5q126 0 217.5 105t114.5 276q26 169 -36 276t-189 107q-125 0 -218 -106.5t-118 -276.5z" />
<glyph unicode="&#xf1;" horiz-adv-x="1167" d="M84 0l154 1059h198l-20 -146q127 160 332 160q149 0 236.5 -101t62.5 -274l-103 -698h-205l99 676q17 106 -33 166.5t-143 60.5q-102 0 -181 -51.5t-90 -144.5l-104 -707h-203zM430 1395q47 40 86.5 60t93.5 20q50 0 131 -29t123 -29q69 0 152 60l14 -123 q-83 -62 -184 -62q-54 0 -128.5 27t-117.5 27q-45 0 -75.5 -14t-75.5 -46z" />
<glyph unicode="&#xf2;" horiz-adv-x="1110" d="M88 522q37 250 186.5 403.5t362.5 153.5q143 0 238.5 -71.5t132 -196.5t12.5 -287q-34 -243 -181.5 -393.5t-363.5 -150.5q-144 0 -240 69t-133.5 191t-13.5 282zM290.5 334q14.5 -85 68.5 -139t143 -54q132 0 212 108.5t105 280.5q13 110 1 196t-65.5 139t-142.5 53 q-133 0 -214.5 -108t-106.5 -280q-15 -111 -0.5 -196zM391 1348l72 153l450 -201l-47 -102z" />
<glyph unicode="&#xf3;" horiz-adv-x="1110" d="M88 522q37 250 186.5 403.5t362.5 153.5q143 0 238.5 -71.5t132 -196.5t12.5 -287q-34 -243 -181.5 -393.5t-363.5 -150.5q-144 0 -240 69t-133.5 191t-13.5 282zM290.5 334q14.5 -85 68.5 -139t143 -54q132 0 212 108.5t105 280.5q13 110 1 196t-65.5 139t-142.5 53 q-133 0 -214.5 -108t-106.5 -280q-15 -111 -0.5 -196zM408 1300l507 201l27 -153l-518 -150z" />
<glyph unicode="&#xf4;" horiz-adv-x="1110" d="M88 522q37 250 186.5 403.5t362.5 153.5q143 0 238.5 -71.5t132 -196.5t12.5 -287q-34 -243 -181.5 -393.5t-363.5 -150.5q-144 0 -240 69t-133.5 191t-13.5 282zM290.5 334q14.5 -85 68.5 -139t143 -54q132 0 212 108.5t105 280.5q13 110 1 196t-65.5 139t-142.5 53 q-133 0 -214.5 -108t-106.5 -280q-15 -111 -0.5 -196zM344 1247l283 242h143l207 -242h-182l-113 139l-166 -139h-172z" />
<glyph unicode="&#xf5;" horiz-adv-x="1110" d="M88 522q37 250 186.5 403.5t362.5 153.5q143 0 238.5 -71.5t132 -196.5t12.5 -287q-34 -243 -181.5 -393.5t-363.5 -150.5q-144 0 -240 69t-133.5 191t-13.5 282zM290.5 334q14.5 -85 68.5 -139t143 -54q132 0 212 108.5t105 280.5q13 110 1 196t-65.5 139t-142.5 53 q-133 0 -214.5 -108t-106.5 -280q-15 -111 -0.5 -196zM385 1395q47 40 86.5 60t93.5 20q51 0 132 -29t122 -29q69 0 152 60l14 -123q-83 -62 -184 -62q-54 0 -128.5 27t-117.5 27q-45 0 -76 -14t-76 -46z" />
<glyph unicode="&#xf6;" horiz-adv-x="1110" d="M88 522q37 250 186.5 403.5t362.5 153.5q143 0 238.5 -71.5t132 -196.5t12.5 -287q-34 -243 -181.5 -393.5t-363.5 -150.5q-144 0 -240 69t-133.5 191t-13.5 282zM290.5 334q14.5 -85 68.5 -139t143 -54q132 0 212 108.5t105 280.5q13 110 1 196t-65.5 139t-142.5 53 q-133 0 -214.5 -108t-106.5 -280q-15 -111 -0.5 -196zM379 1266l31 211h215l-31 -211h-215zM731 1266l31 211h215l-31 -211h-215z" />
<glyph unicode="&#xf7;" horiz-adv-x="1110" d="M143 664l25 159l858 2l-25 -159zM393 256l35 242h244l-35 -242h-244zM502 991l35 244h241l-35 -244h-241z" />
<glyph unicode="&#xf8;" horiz-adv-x="1097" d="M-20 74l108 104q-67 136 -39 344q37 250 186.5 403.5t362.5 153.5q189 0 297 -127l119 115l80 -84l-140 -133q54 -139 27 -326q-34 -243 -181.5 -393.5t-363.5 -150.5q-176 0 -278 102l-99 -94zM252 336l500 479q-54 103 -179 103q-133 0 -214.5 -108t-106.5 -280 q-15 -107 0 -194zM299 219q56 -78 166 -78q67 0 122 30.5t93 84.5t63 123t37 151q12 83 6 158z" />
<glyph unicode="&#xf9;" horiz-adv-x="1163" d="M125 338l104 723h205l-102 -701q-8 -58 5.5 -102t43 -68.5t65 -36.5t76.5 -12q97 0 171.5 60t90.5 170l101 690h205l-156 -1059h-160l6 203q-40 -113 -133.5 -169t-197.5 -54q-65 0 -126 20.5t-111.5 61.5t-75 112t-11.5 162zM414 1348l71 153l451 -201l-47 -102z" />
<glyph unicode="&#xfa;" horiz-adv-x="1163" d="M125 338l104 723h205l-102 -701q-8 -58 5.5 -102t43 -68.5t65 -36.5t76.5 -12q97 0 171.5 60t90.5 170l101 690h205l-156 -1059h-160l6 203q-40 -113 -133.5 -169t-197.5 -54q-65 0 -126 20.5t-111.5 61.5t-75 112t-11.5 162zM430 1300l508 201l27 -153l-519 -150z" />
<glyph unicode="&#xfb;" horiz-adv-x="1163" d="M125 338l104 723h205l-102 -701q-8 -58 5.5 -102t43 -68.5t65 -36.5t76.5 -12q97 0 171.5 60t90.5 170l101 690h205l-156 -1059h-160l6 203q-40 -113 -133.5 -169t-197.5 -54q-65 0 -126 20.5t-111.5 61.5t-75 112t-11.5 162zM367 1247l282 242h144l206 -242h-182 l-112 139l-166 -139h-172z" />
<glyph unicode="&#xfc;" horiz-adv-x="1163" d="M125 338l104 723h205l-102 -701q-8 -58 5.5 -102t43 -68.5t65 -36.5t76.5 -12q97 0 171.5 60t90.5 170l101 690h205l-156 -1059h-160l6 203q-40 -113 -133.5 -169t-197.5 -54q-65 0 -126 20.5t-111.5 61.5t-75 112t-11.5 162zM401 1266l31 211h215l-31 -211h-215z M754 1266l30 211h215l-30 -211h-215z" />
<glyph unicode="&#xfd;" horiz-adv-x="1064" d="M-27 -309l21 135l102 -4q55 -2 96 7.5t65.5 30t37 37t24.5 40.5l46 92l-244 1030h205l170 -795l397 795h199l-582 -1125q-83 -153 -173.5 -212.5t-205.5 -59.5q-54 0 -93.5 7t-51.5 15zM401 1300l508 201l27 -153l-518 -150z" />
<glyph unicode="&#xfe;" horiz-adv-x="1175" d="M37 -330l262 1811h203l-80 -566q27 27 41.5 40.5t51 41.5t67.5 42.5t79 27t99 12.5q180 0 272.5 -137.5t54.5 -398.5q-37 -269 -174.5 -416t-330.5 -147q-153 0 -250 100q-15 17 -22 15t-11 -27l-57 -398h-205zM326 246q91 -123 213 -123q129 0 220.5 106.5t121.5 313.5 q28 201 -33.5 297t-183.5 96q-100 0 -179 -66t-92 -143z" />
<glyph unicode="&#xff;" horiz-adv-x="1064" d="M-27 -309l21 135l102 -4q55 -2 96 7.5t65.5 30t37 37t24.5 40.5l46 92l-244 1030h205l170 -795l397 795h199l-582 -1125q-83 -153 -173.5 -212.5t-205.5 -59.5q-54 0 -93.5 7t-51.5 15zM373 1266l30 211h215l-30 -211h-215zM725 1266l31 211h215l-31 -211h-215z" />
<glyph unicode="&#x152;" horiz-adv-x="2193" d="M152 735q52 362 251 564t498 202q259 0 354 -188l74 168h848l-27 -181h-692l-65 -464h497l-26 -179h-498l-70 -477h717l-26 -180h-881l-19 166q-154 -186 -417 -186q-295 0 -433.5 199t-84.5 556zM395 735q-42 -297 30.5 -438t264.5 -141q188 0 297 140t152 439 q44 303 -26 447.5t-257 144.5q-188 0 -302.5 -145.5t-158.5 -446.5z" />
<glyph unicode="&#x153;" horiz-adv-x="1898" d="M88 522q37 248 196 402.5t375 154.5q119 0 206 -54t134 -151q13 -22 35 0q70 96 171 150.5t214 54.5q217 0 321.5 -158t65.5 -434h-747q-21 -152 52.5 -253t199.5 -101q176 0 315 170l123 -67q-102 -136 -216 -196t-267 -60q-116 0 -204 51t-136 143q-13 28 -35 -4 q-75 -91 -175.5 -140.5t-217.5 -49.5q-219 0 -332 150t-78 392zM297 528q-26 -188 35 -293.5t192 -105.5q132 0 220 105t116 294q28 190 -31 297t-190 107q-132 0 -223 -107t-119 -297zM1083 616l539 -2q13 83 -7 156t-74.5 119.5t-133.5 46.5q-120 0 -212 -88.5 t-112 -231.5z" />
<glyph unicode="&#x178;" horiz-adv-x="1198" d="M150 1481h223l264 -666l453 666h225l-604 -852l-90 -629h-205l90 631zM469 1690l31 211h215l-31 -211h-215zM821 1690l31 211h215l-31 -211h-215z" />
<glyph unicode="&#x2c6;" horiz-adv-x="657" d="M113 1247l282 242h144l206 -242h-182l-112 139l-166 -139h-172z" />
<glyph unicode="&#x2dc;" horiz-adv-x="704" d="M170 1395q47 40 86.5 60t93.5 20q50 0 131 -29t123 -29q69 0 152 60l14 -123q-83 -62 -184 -62q-54 0 -128.5 27t-117.5 27q-45 0 -76 -14t-76 -46z" />
<glyph unicode="&#x2000;" horiz-adv-x="1010" />
<glyph unicode="&#x2001;" horiz-adv-x="2021" />
<glyph unicode="&#x2002;" horiz-adv-x="1010" />
<glyph unicode="&#x2003;" horiz-adv-x="2021" />
<glyph unicode="&#x2004;" horiz-adv-x="673" />
<glyph unicode="&#x2005;" horiz-adv-x="505" />
<glyph unicode="&#x2006;" horiz-adv-x="336" />
<glyph unicode="&#x2007;" horiz-adv-x="336" />
<glyph unicode="&#x2008;" horiz-adv-x="252" />
<glyph unicode="&#x2009;" horiz-adv-x="404" />
<glyph unicode="&#x200a;" horiz-adv-x="112" />
<glyph unicode="&#x2010;" horiz-adv-x="761" d="M115 446l22 162l502 2l-23 -161z" />
<glyph unicode="&#x2011;" horiz-adv-x="761" d="M115 446l22 162l502 2l-23 -161z" />
<glyph unicode="&#x2012;" horiz-adv-x="761" d="M115 446l22 162l502 2l-23 -161z" />
<glyph unicode="&#x2013;" horiz-adv-x="1118" d="M113 432l22 160l860 2l-24 -162h-858z" />
<glyph unicode="&#x2014;" horiz-adv-x="1730" d="M111 432l24 160l1473 2l-25 -162h-1472z" />
<glyph unicode="&#x2018;" horiz-adv-x="514" d="M127 1044l31 207l211 293h88l-144 -258l88 -6l-34 -236h-240z" />
<glyph unicode="&#x2019;" horiz-adv-x="454" d="M176 981l133 258l-90 6l21 236h247l-18 -207l-201 -293h-92z" />
<glyph unicode="&#x201a;" horiz-adv-x="512" d="M-20 -260l149 256l-90 6l35 238h252l-31 -207l-223 -293h-92z" />
<glyph unicode="&#x201c;" horiz-adv-x="872" d="M354 981l21 207l198 293h127l-133 -258l88 -4l-20 -238h-281z" />
<glyph unicode="&#x201d;" horiz-adv-x="833" d="M176 981l133 258l-90 6l21 236h247l-18 -207l-201 -293h-92zM555 981l133 258l-88 6l21 236h245l-18 -207l-201 -293h-92z" />
<glyph unicode="&#x201e;" horiz-adv-x="903" d="M-20 -260l149 256l-90 6l35 238h252l-31 -207l-223 -293h-92zM369 -260l151 256l-92 6l35 238h254l-31 -207l-223 -293h-94z" />
<glyph unicode="&#x2022;" horiz-adv-x="665" d="M147 754q0 87 62 149t149 62t149 -62t62 -149q0 -88 -61.5 -149.5t-149.5 -61.5t-149.5 61.5t-61.5 149.5z" />
<glyph unicode="&#x2026;" horiz-adv-x="1609" d="M61 0l39 256h238l-39 -256h-238zM633 0l39 256h235l-37 -256h-237zM1204 0l37 256h238l-39 -256h-236z" />
<glyph unicode="&#x202f;" horiz-adv-x="404" />
<glyph unicode="&#x2039;" horiz-adv-x="565" d="M84 514l307 389h113l-244 -389l131 -373h-112z" />
<glyph unicode="&#x203a;" horiz-adv-x="565" d="M53 141l240 373l-131 389h112l193 -389l-303 -373h-111z" />
<glyph unicode="&#x205f;" horiz-adv-x="505" />
<glyph unicode="&#x20ac;" horiz-adv-x="1196" d="M-18 516l18 127h162q2 31 10 102q6 49 18 99h-159l16 125h178q83 252 252.5 392t392.5 140q111 0 203.5 -43t153.5 -119l-160 -125q-93 111 -207 111q-282 0 -397 -354h371l-19 -127h-385q-12 -50 -18 -101q-11 -92 -11 -100h383l-18 -127h-367q9 -175 89 -263.5 t221 -88.5q65 0 133.5 31t122.5 77l92 -131q-83 -74 -187.5 -117.5t-214.5 -43.5q-223 0 -353 142t-142 394h-178z" />
<glyph unicode="&#x2122;" horiz-adv-x="1849" d="M63 807l19 119h674l-19 -119h-266l-117 -807h-127l117 807h-281zM797 0l133 926h182l141 -746l361 746h178l-133 -926h-131l106 741l-352 -741h-113l-135 735l-106 -735h-131z" />
<glyph unicode="&#x25fc;" horiz-adv-x="1054" d="M0 0v1055h1055v-1055h-1055z" />
</font>
</defs>
</svg>
